# xmcd CD database file
#
# Track frame offsets:
#	150
#	17436
#	38488
#	55755
#
# Disc length: 1022 seconds
#
# Revision: 2
# Processed by: cddbd v1.5.2PL0 Copyright (c) Steve Scherf et al.
# Submitted via: CDex 1.70beta2
#
DISCID=2003fc04
DTITLE=AKB48 - 会いたかった
DYEAR=2006
DGENRE=JPop
TTITLE0=会いたかった
TTITLE1=だけど・・・
TTITLE2=会いたかった (Instrumental)
TTITLE3=だけど・・・ (Instrumental)
EXTD=YEAR: 2006
EXTT0=
EXTT1=
EXTT2=
EXTT3=
PLAYORDER=
